<?xml version="1.0" standalone="no"?><!DOCTYPE svg PUBLIC "-//W3C//DTD SVG 1.1//EN" "http://www.w3.org/Graphics/SVG/1.1/DTD/svg11.dtd"><svg class="icon" width="200px" height="200.00px" viewBox="0 0 1024 1024" version="1.1" xmlns="http://www.w3.org/2000/svg"><path d="M643.2 588.9m-33.7 0a33.7 33.7 0 1 0 67.4 0 33.7 33.7 0 1 0-67.4 0Z" fill="#383F51" /><path d="M382.9 588.9m-33.7 0a33.7 33.7 0 1 0 67.4 0 33.7 33.7 0 1 0-67.4 0Z" fill="#383F51" /><path d="M514.1 838.8c-8.5 0-15.4-6.9-15.4-15.4V747c0-8.5 6.9-15.4 15.4-15.4s15.4 6.9 15.4 15.4v76.4c0 8.5-6.9 15.4-15.4 15.4z" fill="#383F51" /><path d="M514.1 855.8c-45.7 0-87.6-26.9-106.7-68.4-3.6-7.8-0.2-16.9 7.6-20.5 7.8-3.6 16.9-0.2 20.5 7.6 14.1 30.6 44.9 50.4 78.6 50.4 33.7 0 64.5-19.8 78.6-50.4 3.6-7.8 12.7-11.2 20.5-7.6 7.8 3.6 11.2 12.7 7.6 20.5-19.1 41.6-61 68.4-106.7 68.4zM316.3 379.8h-0.5V318zM721.6 318h12.1v61.8h-12.1z" fill="#383F51" /><path d="M507.2 520.3c-85.6 0-164.5-45-209.3-115.8-32 29.1-73.8 45.5-118.6 45.5C81.6 450 2.1 370.5 2.1 272.8 2.1 175 81.6 95.5 179.3 95.5c44.8 0 86.6 16.5 118.6 45.5C342.7 70.3 421.6 25.3 507.2 25.3c79.7 0 155 38.8 201.4 103.7 9.9 13.9 6.7 33.2-7.2 43.1-13.9 9.9-33.2 6.7-43.1-7.2C623.5 116.1 567 87 507.2 87c-77 0-146.8 48.6-173.8 120.8-4.1 11.1-14.3 18.8-26 19.9-11.8 1.1-23.2-4.6-29.3-14.7-21.2-34.9-58.1-55.8-98.7-55.8-63.7 0-115.5 51.8-115.5 115.5s51.8 115.5 115.5 115.5c40.6 0 77.5-20.9 98.7-55.8 6.1-10.1 17.5-15.8 29.3-14.7 11.8 1.1 21.9 8.9 26 19.9 27 72.3 96.9 120.8 173.8 120.8 81.3 0 154.4-54.3 177.8-132.1 3.7-12.2 14.5-20.9 27.3-21.9 12.7-0.9 24.8 6 30.2 17.6 19 40.2 60 66.2 104.3 66.2 63.7 0 115.5-51.8 115.5-115.5s-51.8-115.5-115.5-115.5c-26.1 0-50.7 8.5-71.2 24.7-13.4 10.6-32.8 8.3-43.4-5.1-10.6-13.4-8.3-32.8 5.1-43.4 31.5-24.8 69.3-37.9 109.4-37.9 97.7 0 177.3 79.5 177.3 177.3 0 97.7-79.5 177.3-177.3 177.3-47.8 0-93-19.7-125.8-52.7-43.7 74.4-125.1 122.9-213.7 122.9z" fill="#383F51" /><path d="M513 1012.1c-83.1 0-161.4-33-220.5-92.8-59-59.6-91.5-138.7-91.5-222.5V413.3c0-17.1 13.8-30.9 30.9-30.9s30.9 13.8 30.9 30.9v283.5c0 67.5 26.1 131.1 73.6 179.1 47.3 48 110 74.4 176.5 74.4 47.5 0 93.8-13.7 133.9-39.7 14.3-9.3 33.5-5.2 42.7 9.1s5.2 33.5-9.1 42.7c-50 32.5-107.9 49.7-167.4 49.7zM767.8 847.3c-4.3 0-8.7-0.9-12.9-2.9-15.5-7.2-22.2-25.5-15.1-41 15.5-33.6 23.4-69.5 23.4-106.7V404.2c0-17.1 13.8-30.9 30.9-30.9 17.1 0 30.9 13.8 30.9 30.9v292.6c0 46.2-9.8 90.8-29.1 132.6-5.2 11.2-16.4 17.9-28.1 17.9z" fill="#383F51" /><path d="M863.7 634.1c-38 0-72.7-12-84.3-46.1l29.3-9.9c9.8 28.9 61.1 29.7 104.7 18.2 11-2.9 19.1-11.3 21.6-22.5 2.6-11.4-1.1-22.8-10-30.4L807.4 442.6l20.1-23.5 117.6 100.8c17.5 15 25.1 38.2 20 60.7-5.1 22.2-21.9 39.7-43.9 45.5-18.2 4.9-38.3 8-57.5 8zM162.4 634.1c-19.2 0-39.2-3.1-57.6-7.9-22-5.8-38.8-23.2-43.9-45.5-5.1-22.5 2.5-45.8 20-60.7l117.6-100.8 20.1 23.5L101 543.4c-8.9 7.6-12.6 19-10 30.4 2.6 11.2 10.7 19.6 21.6 22.5 43.5 11.5 94.9 10.7 104.7-18.2l29.3 9.9c-11.5 34.1-46.2 46.1-84.2 46.1z" fill="#383F51" /></svg>